<svg width="2394" height="191" viewBox="0 0 2394 191" fill="none" xmlns="http://www.w3.org/2000/svg">
  <path
    d="M0.312001 191V0.919992H151.056C158.272 0.919992 164.784 2.67999 170.592 6.19999C176.576 9.71999 181.328 14.472 184.848 20.456C188.544 26.264 190.392 32.776 190.392 39.992V151.928C190.392 158.968 188.544 165.48 184.848 171.464C181.328 177.448 176.576 182.2 170.592 185.72C164.784 189.24 158.272 191 151.056 191H0.312001ZM40.968 149.816H148.944V42.104H40.968V149.816ZM258.5 191C251.46 191 244.948 189.24 238.964 185.72C232.98 182.2 228.228 177.448 224.708 171.464C221.188 165.48 219.428 158.968 219.428 151.928V39.992C219.428 32.776 221.188 26.264 224.708 20.456C228.228 14.472 232.98 9.71999 238.964 6.19999C244.948 2.67999 251.46 0.919992 258.5 0.919992H370.436C377.476 0.919992 383.9 2.67999 389.708 6.19999C395.692 9.71999 400.444 14.472 403.964 20.456C407.66 26.264 409.508 32.776 409.508 39.992V151.928C409.508 158.968 407.66 165.48 403.964 171.464C400.444 177.448 395.692 182.2 389.708 185.72C383.9 189.24 377.476 191 370.436 191H258.5ZM260.348 149.816H368.06V42.104H260.348V149.816ZM438.581 191V0.919992H480.821L545.237 77.744L609.389 0.919992H651.893V191H610.709V63.488L545.237 141.632L479.501 63.752V191H438.581ZM676.903 191V0.919992H717.295V191H676.903ZM739.964 191V0.919992H782.204L888.596 127.64V0.919992H930.044V191H887.804L780.884 63.752V191H739.964ZM953.02 191V0.919992H993.412V191H953.02ZM1055.15 191C1047.94 191 1041.34 189.24 1035.35 185.72C1029.54 182.2 1024.88 177.536 1021.36 171.728C1017.84 165.744 1016.08 159.144 1016.08 151.928V39.992C1016.08 32.776 1017.84 26.264 1021.36 20.456C1024.88 14.472 1029.54 9.71999 1035.35 6.19999C1041.34 2.67999 1047.94 0.919992 1055.15 0.919992H1205.63V42.104H1065.71C1062.9 42.104 1060.7 42.808 1059.11 44.216C1057.7 45.624 1057 47.824 1057 50.816V141.104C1057 143.92 1057.7 146.12 1059.11 147.704C1060.7 149.112 1062.9 149.816 1065.71 149.816H1205.63V191H1055.15ZM1233.42 191V0.919992H1274.61V75.368H1311.83L1374.14 0.919992H1416.9V15.176L1349.06 95.96L1416.9 176.744V191H1374.14L1311.83 116.552H1274.61V191H1233.42ZM1633.16 191L1523.07 0.919992H1570.59L1650.32 138.992L1730.04 0.919992H1777.3L1667.21 191H1633.16ZM1791.08 191V39.992C1791.08 32.776 1792.84 26.264 1796.36 20.456C1799.88 14.472 1804.63 9.71999 1810.61 6.19999C1816.6 2.67999 1823.11 0.919992 1830.15 0.919992H1941.82C1949.04 0.919992 1955.55 2.67999 1961.36 6.19999C1967.34 9.71999 1972.09 14.472 1975.61 20.456C1979.31 26.264 1981.16 32.776 1981.16 39.992V191H1939.71V129.752H1832V191H1791.08ZM1832 88.568H1939.71V42.104H1832V88.568ZM2011.5 191V0.655996H2052.42V149.816H2201.58V191H2011.5ZM2217.5 191V0.919992H2393.06V42.104H2258.95V75.368H2366.92V116.552H2258.95V149.816H2393.06V191H2217.5Z"
    fill="#DDDDDD"
  />
</svg>
